<svg xmlns="http://www.w3.org/2000/svg" viewBox="0 0 512 512">
  <defs>
    <!-- Liquid glass gradient -->
    <linearGradient id="glass" x1="0" y1="0" x2="1" y2="1">
      <stop offset="0%" stop-color="rgba(255,255,255,0.22)"/>
      <stop offset="50%" stop-color="rgba(255,255,255,0.08)"/>
      <stop offset="100%" stop-color="rgba(255,255,255,0.14)"/>
    </linearGradient>
    <!-- Specular highlight -->
    <linearGradient id="spec" x1="0.5" y1="0" x2="0.5" y2="0.5">
      <stop offset="0%" stop-color="rgba(255,255,255,0.45)"/>
      <stop offset="100%" stop-color="rgba(255,255,255,0)"/>
    </linearGradient>
    <!-- Ambient glow -->
    <radialGradient id="glow1" cx="0.3" cy="0.3" r="0.6">
      <stop offset="0%" stop-color="#E63946" stop-opacity="0.5"/>
      <stop offset="100%" stop-color="#E63946" stop-opacity="0"/>
    </radialGradient>
    <radialGradient id="glow2" cx="0.7" cy="0.7" r="0.5">
      <stop offset="0%" stop-color="#F4A261" stop-opacity="0.4"/>
      <stop offset="100%" stop-color="#F4A261" stop-opacity="0"/>
    </radialGradient>
    <radialGradient id="glow3" cx="0.5" cy="0.5" r="0.4">
      <stop offset="0%" stop-color="#6C7BD8" stop-opacity="0.25"/>
      <stop offset="100%" stop-color="#6C7BD8" stop-opacity="0"/>
    </radialGradient>
    <!-- Text gradient -->
    <linearGradient id="txtGrad" x1="0" y1="0" x2="1" y2="1">
      <stop offset="0%" stop-color="#FF6B6B"/>
      <stop offset="50%" stop-color="#F4A261"/>
      <stop offset="100%" stop-color="#FFD93D"/>
    </linearGradient>
  </defs>

  <!-- Background -->
  <rect width="512" height="512" rx="112" fill="#050508"/>

  <!-- Ambient light orbs -->
  <rect width="512" height="512" rx="112" fill="url(#glow1)"/>
  <rect width="512" height="512" rx="112" fill="url(#glow2)"/>
  <rect width="512" height="512" rx="112" fill="url(#glow3)"/>

  <!-- Glass panel -->
  <rect x="56" y="56" width="400" height="400" rx="72" fill="url(#glass)"/>
  <rect x="56" y="56" width="400" height="400" rx="72" fill="none" stroke="rgba(255,255,255,0.18)" stroke-width="1.5"/>

  <!-- Top specular highlight -->
  <rect x="56" y="56" width="400" height="200" rx="72" fill="url(#spec)" opacity="0.6"/>

  <!-- Soundwave bars — centered in glass panel -->
  <g opacity="0.9">
    <rect x="114" y="248" width="26" height="80"  rx="13" fill="url(#txtGrad)"/>
    <rect x="154" y="200" width="26" height="176" rx="13" fill="url(#txtGrad)"/>
    <rect x="194" y="160" width="26" height="256" rx="13" fill="url(#txtGrad)"/>
    <rect x="234" y="184" width="26" height="208" rx="13" fill="url(#txtGrad)"/>
    <rect x="274" y="144" width="26" height="280" rx="13" fill="url(#txtGrad)"/>
    <rect x="314" y="176" width="26" height="216" rx="13" fill="url(#txtGrad)"/>
    <rect x="354" y="212" width="26" height="144" rx="13" fill="url(#txtGrad)"/>
    <rect x="394" y="256" width="26" height="56"  rx="13" fill="url(#txtGrad)"/>
  </g>
</svg>
